<svg xmlns="http://www.w3.org/2000/svg" xmlns:xlink="http://www.w3.org/1999/xlink" contentStyleType="text/css" height="1109px" preserveAspectRatio="none" style="width:1478px;height:1109px;background:#FFFFFF;" version="1.1" viewBox="0 0 1478 1109" width="1478px" zoomAndPan="magnify"><defs/><g><!--class Person--><a href="java:Person" target="_top" title="java:Person" xlink:actuate="onRequest" xlink:href="java:Person" xlink:show="new" xlink:title="java:Person" xlink:type="simple"><g id="elem_Person"><rect codeLine="65" fill="#F1F1F1" height="276.9219" id="Person" rx="2.5" ry="2.5" style="stroke:#181818;stroke-width:0.5;" width="287" x="9" y="593.5"/><ellipse cx="125.75" cy="609.5" fill="#ADD1B2" rx="11" ry="11" style="stroke:#181818;stroke-width:1.0;"/><path d="M128.5156,605.375 Q128.6719,605.1563 128.8594,605.0469 Q129.0469,604.9375 129.2656,604.9375 Q129.6406,604.9375 129.875,605.2031 Q130.1094,605.4531 130.1094,606.0625 L130.1094,607.5156 Q130.1094,608.125 129.875,608.3906 Q129.6406,608.6563 129.2656,608.6563 Q128.9219,608.6563 128.7188,608.4531 Q128.5156,608.2656 128.4063,607.75 Q128.3594,607.3906 128.1719,607.2031 Q127.8438,606.8281 127.2344,606.6094 Q126.625,606.3906 126,606.3906 Q125.2344,606.3906 124.5938,606.7188 Q123.9688,607.0469 123.4688,607.7969 Q122.9844,608.5469 122.9844,609.5781 L122.9844,610.6719 Q122.9844,611.9063 123.875,612.7344 Q124.7656,613.5469 126.3594,613.5469 Q127.2969,613.5469 127.9531,613.2969 Q128.3438,613.1406 128.7656,612.7031 Q129.0313,612.4375 129.1719,612.3594 Q129.3281,612.2813 129.5313,612.2813 Q129.8594,612.2813 130.1094,612.5469 Q130.375,612.7969 130.375,613.1406 Q130.375,613.4844 130.0313,613.8906 Q129.5313,614.4688 128.7344,614.7969 Q127.6563,615.25 126.3594,615.25 Q124.8438,615.25 123.6406,614.625 Q122.6563,614.125 121.9688,613.0625 Q121.2813,611.9844 121.2813,610.7031 L121.2813,609.5469 Q121.2813,608.2188 121.8906,607.0781 Q122.5156,605.9219 123.6094,605.3125 Q124.7031,604.6875 125.9375,604.6875 Q126.6719,604.6875 127.3125,604.8594 Q127.9688,605.0156 128.5156,605.375 Z " fill="#000000"/><text fill="#000000" font-family="sans-serif" font-size="14" lengthAdjust="spacing" textLength="45" x="146.25" y="615.2285">Person</text><line style="stroke:#181818;stroke-width:0.5;" x1="10" x2="295" y1="625.5" y2="625.5"/><polygon fill="none" points="20,634.8047,24,638.8047,20,642.8047,16,638.8047" style="stroke:#B38D22;stroke-width:1.0;"/><text fill="#000000" font-family="sans-serif" font-size="14" lengthAdjust="spacing" textLength="80" x="29" y="644.0332">name: String</text><polygon fill="none" points="20,652.4141,24,656.4141,20,660.4141,16,656.4141" style="stroke:#B38D22;stroke-width:1.0;"/><text fill="#000000" font-family="sans-serif" font-size="14" lengthAdjust="spacing" textLength="58" x="29" y="661.6426">score: int</text><line style="stroke:#181818;stroke-width:0.5;" x1="10" x2="295" y1="668.7188" y2="668.7188"/><ellipse cx="20" cy="683.0234" fill="#84BE84" rx="3" ry="3" style="stroke:#038048;stroke-width:1.0;"/><text fill="#000000" font-family="sans-serif" font-size="14" lengthAdjust="spacing" textLength="135" x="29" y="687.252">Person(name: String)</text><ellipse cx="20" cy="700.6328" fill="#84BE84" rx="3" ry="3" style="stroke:#038048;stroke-width:1.0;"/><text fill="#000000" font-family="sans-serif" font-size="14" lengthAdjust="spacing" textLength="111" x="29" y="704.8613">getName(): String</text><ellipse cx="20" cy="718.2422" fill="#84BE84" rx="3" ry="3" style="stroke:#038048;stroke-width:1.0;"/><text fill="#000000" font-family="sans-serif" font-size="14" lengthAdjust="spacing" textLength="90" x="29" y="722.4707">getScore(): int</text><ellipse cx="20" cy="735.8516" fill="#84BE84" rx="3" ry="3" style="stroke:#038048;stroke-width:1.0;"/><text fill="#000000" font-family="sans-serif" font-size="14" lengthAdjust="spacing" textLength="166" x="29" y="740.0801">addScore(points: int): void</text><ellipse cx="20" cy="753.4609" fill="#84BE84" rx="3" ry="3" style="stroke:#038048;stroke-width:1.0;"/><text fill="#000000" font-family="sans-serif" font-size="14" lengthAdjust="spacing" textLength="221" x="29" y="757.6895">addSeenFusca(fusca: Fusca): void</text><ellipse cx="20" cy="771.0703" fill="#84BE84" rx="3" ry="3" style="stroke:#038048;stroke-width:1.0;"/><text fill="#000000" font-family="sans-serif" font-size="14" lengthAdjust="spacing" textLength="140" x="29" y="775.2988">listSeenFuscas(): void</text><ellipse cx="20" cy="788.6797" fill="#84BE84" rx="3" ry="3" style="stroke:#038048;stroke-width:1.0;"/><text fill="#000000" font-family="sans-serif" font-size="14" lengthAdjust="spacing" textLength="154" x="29" y="792.9082">clearSeenFuscas(): void</text><ellipse cx="20" cy="806.2891" fill="#84BE84" rx="3" ry="3" style="stroke:#038048;stroke-width:1.0;"/><text fill="#000000" font-family="sans-serif" font-size="14" lengthAdjust="spacing" textLength="244" x="29" y="810.5176">removeSeenFusca(fusca: Fusca): void</text><ellipse cx="20" cy="823.8984" fill="#84BE84" rx="3" ry="3" style="stroke:#038048;stroke-width:1.0;"/><text fill="#000000" font-family="sans-serif" font-size="14" lengthAdjust="spacing" textLength="235" x="29" y="828.127">findSeenFuscaById(id: String): Fusca</text><ellipse cx="20" cy="841.5078" fill="#84BE84" rx="3" ry="3" style="stroke:#038048;stroke-width:1.0;"/><text fill="#000000" font-family="sans-serif" font-size="14" lengthAdjust="spacing" textLength="261" x="29" y="845.7363">attack(target: Person, fusca: Fusca): void</text><ellipse cx="20" cy="859.1172" fill="#84BE84" rx="3" ry="3" style="stroke:#038048;stroke-width:1.0;"/><text fill="#000000" font-family="sans-serif" font-size="14" lengthAdjust="spacing" textLength="104" x="29" y="863.3457">toString(): String</text></g></a><!--class Fusca--><a href="java:Fusca" target="_top" title="java:Fusca" xlink:actuate="onRequest" xlink:href="java:Fusca" xlink:show="new" xlink:title="java:Fusca" xlink:type="simple"><g id="elem_Fusca"><rect codeLine="93" fill="#F1F1F1" height="136.0469" id="Fusca" rx="2.5" ry="2.5" style="stroke:#181818;stroke-width:0.5;" width="342" x="508.5" y="966"/><ellipse cx="655.75" cy="982" fill="#ADD1B2" rx="11" ry="11" style="stroke:#181818;stroke-width:1.0;"/><path d="M658.5156,977.875 Q658.6719,977.6563 658.8594,977.5469 Q659.0469,977.4375 659.2656,977.4375 Q659.6406,977.4375 659.875,977.7031 Q660.1094,977.9531 660.1094,978.5625 L660.1094,980.0156 Q660.1094,980.625 659.875,980.8906 Q659.6406,981.1563 659.2656,981.1563 Q658.9219,981.1563 658.7188,980.9531 Q658.5156,980.7656 658.4063,980.25 Q658.3594,979.8906 658.1719,979.7031 Q657.8438,979.3281 657.2344,979.1094 Q656.625,978.8906 656,978.8906 Q655.2344,978.8906 654.5938,979.2188 Q653.9688,979.5469 653.4688,980.2969 Q652.9844,981.0469 652.9844,982.0781 L652.9844,983.1719 Q652.9844,984.4063 653.875,985.2344 Q654.7656,986.0469 656.3594,986.0469 Q657.2969,986.0469 657.9531,985.7969 Q658.3438,985.6406 658.7656,985.2031 Q659.0313,984.9375 659.1719,984.8594 Q659.3281,984.7813 659.5313,984.7813 Q659.8594,984.7813 660.1094,985.0469 Q660.375,985.2969 660.375,985.6406 Q660.375,985.9844 660.0313,986.3906 Q659.5313,986.9688 658.7344,987.2969 Q657.6563,987.75 656.3594,987.75 Q654.8438,987.75 653.6406,987.125 Q652.6563,986.625 651.9688,985.5625 Q651.2813,984.4844 651.2813,983.2031 L651.2813,982.0469 Q651.2813,980.7188 651.8906,979.5781 Q652.5156,978.4219 653.6094,977.8125 Q654.7031,977.1875 655.9375,977.1875 Q656.6719,977.1875 657.3125,977.3594 Q657.9688,977.5156 658.5156,977.875 Z " fill="#000000"/><text fill="#000000" font-family="sans-serif" font-size="14" lengthAdjust="spacing" textLength="39" x="676.25" y="987.7285">Fusca</text><line style="stroke:#181818;stroke-width:0.5;" x1="509.5" x2="849.5" y1="998" y2="998"/><rect fill="none" height="6" style="stroke:#C82930;stroke-width:1.0;" width="6" x="516.5" y="1009.3047"/><text fill="#000000" font-family="sans-serif" font-size="14" lengthAdjust="spacing" textLength="119" x="528.5" y="1016.5332">ownerName: String</text><line style="stroke:#181818;stroke-width:0.5;" x1="509.5" x2="849.5" y1="1023.6094" y2="1023.6094"/><ellipse cx="519.5" cy="1037.9141" fill="#84BE84" rx="3" ry="3" style="stroke:#038048;stroke-width:1.0;"/><text fill="#000000" font-family="sans-serif" font-size="14" lengthAdjust="spacing" textLength="316" x="528.5" y="1042.1426">Fusca(id: String, color: String, ownerName: String)</text><ellipse cx="519.5" cy="1055.5234" fill="#84BE84" rx="3" ry="3" style="stroke:#038048;stroke-width:1.0;"/><text fill="#000000" font-family="sans-serif" font-size="14" lengthAdjust="spacing" textLength="152" x="528.5" y="1059.752">getOwnerName(): String</text><ellipse cx="519.5" cy="1073.1328" fill="#84BE84" rx="3" ry="3" style="stroke:#038048;stroke-width:1.0;"/><text fill="#000000" font-family="sans-serif" font-size="14" lengthAdjust="spacing" textLength="259" x="528.5" y="1077.3613">setOwnerName(ownerName: String): void</text><ellipse cx="519.5" cy="1090.7422" fill="#84BE84" rx="3" ry="3" style="stroke:#038048;stroke-width:1.0;"/><text fill="#000000" font-family="sans-serif" font-size="14" lengthAdjust="spacing" textLength="104" x="528.5" y="1094.9707">toString(): String</text></g></a><!--class Main--><a href="java:Main" target="_top" title="java:Main" xlink:actuate="onRequest" xlink:href="java:Main" xlink:show="new" xlink:title="java:Main" xlink:type="simple"><g id="elem_Main"><rect codeLine="19" fill="#F1F1F1" height="65.6094" id="Main" rx="2.5" ry="2.5" style="stroke:#181818;stroke-width:0.5;" width="181" x="675" y="59.5"/><ellipse cx="746.25" cy="75.5" fill="#ADD1B2" rx="11" ry="11" style="stroke:#181818;stroke-width:1.0;"/><path d="M749.0156,71.375 Q749.1719,71.1563 749.3594,71.0469 Q749.5469,70.9375 749.7656,70.9375 Q750.1406,70.9375 750.375,71.2031 Q750.6094,71.4531 750.6094,72.0625 L750.6094,73.5156 Q750.6094,74.125 750.375,74.3906 Q750.1406,74.6563 749.7656,74.6563 Q749.4219,74.6563 749.2188,74.4531 Q749.0156,74.2656 748.9063,73.75 Q748.8594,73.3906 748.6719,73.2031 Q748.3438,72.8281 747.7344,72.6094 Q747.125,72.3906 746.5,72.3906 Q745.7344,72.3906 745.0938,72.7188 Q744.4688,73.0469 743.9688,73.7969 Q743.4844,74.5469 743.4844,75.5781 L743.4844,76.6719 Q743.4844,77.9063 744.375,78.7344 Q745.2656,79.5469 746.8594,79.5469 Q747.7969,79.5469 748.4531,79.2969 Q748.8438,79.1406 749.2656,78.7031 Q749.5313,78.4375 749.6719,78.3594 Q749.8281,78.2813 750.0313,78.2813 Q750.3594,78.2813 750.6094,78.5469 Q750.875,78.7969 750.875,79.1406 Q750.875,79.4844 750.5313,79.8906 Q750.0313,80.4688 749.2344,80.7969 Q748.1563,81.25 746.8594,81.25 Q745.3438,81.25 744.1406,80.625 Q743.1563,80.125 742.4688,79.0625 Q741.7813,77.9844 741.7813,76.7031 L741.7813,75.5469 Q741.7813,74.2188 742.3906,73.0781 Q743.0156,71.9219 744.1094,71.3125 Q745.2031,70.6875 746.4375,70.6875 Q747.1719,70.6875 747.8125,70.8594 Q748.4688,71.0156 749.0156,71.375 Z " fill="#000000"/><text fill="#000000" font-family="sans-serif" font-size="14" lengthAdjust="spacing" textLength="30" x="766.75" y="81.2285">Main</text><line style="stroke:#181818;stroke-width:0.5;" x1="676" x2="855" y1="91.5" y2="91.5"/><line style="stroke:#181818;stroke-width:0.5;" x1="676" x2="855" y1="99.5" y2="99.5"/><ellipse cx="686" cy="113.8047" fill="#84BE84" rx="3" ry="3" style="stroke:#038048;stroke-width:1.0;"/><text fill="#000000" font-family="sans-serif" font-size="14" lengthAdjust="spacing" text-decoration="underline" textLength="155" x="695" y="118.0332">main(args: String[]): void</text></g></a><!--class FileFuscaRepository--><a href="java:FileFuscaRepository" target="_top" title="java:FileFuscaRepository" xlink:actuate="onRequest" xlink:href="java:FileFuscaRepository" xlink:show="new" xlink:title="java:FileFuscaRepository" xlink:type="simple"><g id="elem_FileFuscaRepository"><rect codeLine="22" fill="#F1F1F1" height="312.1406" id="FileFuscaRepository" rx="2.5" ry="2.5" style="stroke:#181818;stroke-width:0.5;" width="324" x="517.5" y="576"/><ellipse cx="610.25" cy="592" fill="#ADD1B2" rx="11" ry="11" style="stroke:#181818;stroke-width:1.0;"/><path d="M613.0156,587.875 Q613.1719,587.6563 613.3594,587.5469 Q613.5469,587.4375 613.7656,587.4375 Q614.1406,587.4375 614.375,587.7031 Q614.6094,587.9531 614.6094,588.5625 L614.6094,590.0156 Q614.6094,590.625 614.375,590.8906 Q614.1406,591.1563 613.7656,591.1563 Q613.4219,591.1563 613.2188,590.9531 Q613.0156,590.7656 612.9063,590.25 Q612.8594,589.8906 612.6719,589.7031 Q612.3438,589.3281 611.7344,589.1094 Q611.125,588.8906 610.5,588.8906 Q609.7344,588.8906 609.0938,589.2188 Q608.4688,589.5469 607.9688,590.2969 Q607.4844,591.0469 607.4844,592.0781 L607.4844,593.1719 Q607.4844,594.4063 608.375,595.2344 Q609.2656,596.0469 610.8594,596.0469 Q611.7969,596.0469 612.4531,595.7969 Q612.8438,595.6406 613.2656,595.2031 Q613.5313,594.9375 613.6719,594.8594 Q613.8281,594.7813 614.0313,594.7813 Q614.3594,594.7813 614.6094,595.0469 Q614.875,595.2969 614.875,595.6406 Q614.875,595.9844 614.5313,596.3906 Q614.0313,596.9688 613.2344,597.2969 Q612.1563,597.75 610.8594,597.75 Q609.3438,597.75 608.1406,597.125 Q607.1563,596.625 606.4688,595.5625 Q605.7813,594.4844 605.7813,593.2031 L605.7813,592.0469 Q605.7813,590.7188 606.3906,589.5781 Q607.0156,588.4219 608.1094,587.8125 Q609.2031,587.1875 610.4375,587.1875 Q611.1719,587.1875 611.8125,587.3594 Q612.4688,587.5156 613.0156,587.875 Z " fill="#000000"/><text fill="#000000" font-family="sans-serif" font-size="14" lengthAdjust="spacing" textLength="130" x="630.75" y="597.7285">FileFuscaRepository</text><line style="stroke:#181818;stroke-width:0.5;" x1="518.5" x2="840.5" y1="608" y2="608"/><rect fill="none" height="6" style="stroke:#C82930;stroke-width:1.0;" width="6" x="525.5" y="619.3047"/><text fill="#000000" font-family="sans-serif" font-size="14" lengthAdjust="spacing" textLength="55" x="537.5" y="626.5332">file: Path</text><rect fill="none" height="6" style="stroke:#C82930;stroke-width:1.0;" width="6" x="525.5" y="636.9141"/><text fill="#000000" font-family="sans-serif" font-size="14" lengthAdjust="spacing" textLength="250" x="537.5" y="644.1426">storage: ConcurrentMap&lt;String,Fusca&gt;</text><rect fill="none" height="6" style="stroke:#C82930;stroke-width:1.0;" width="6" x="525.5" y="654.5234"/><text fill="#000000" font-family="sans-serif" font-size="14" lengthAdjust="spacing" text-decoration="underline" textLength="165" x="537.5" y="661.752">FIELD_PATTERN: Pattern</text><line style="stroke:#181818;stroke-width:0.5;" x1="518.5" x2="840.5" y1="668.8281" y2="668.8281"/><ellipse cx="528.5" cy="683.1328" fill="#84BE84" rx="3" ry="3" style="stroke:#038048;stroke-width:1.0;"/><text fill="#000000" font-family="sans-serif" font-size="14" lengthAdjust="spacing" textLength="232" x="537.5" y="687.3613">FileFuscaRepository(filePath: String)</text><rect fill="#F24D5C" height="6" style="stroke:#C82930;stroke-width:1.0;" width="6" x="525.5" y="697.7422"/><text fill="#000000" font-family="sans-serif" font-size="14" lengthAdjust="spacing" textLength="127" x="537.5" y="704.9707">loadFromFile(): void</text><rect fill="#F24D5C" height="6" style="stroke:#C82930;stroke-width:1.0;" width="6" x="525.5" y="715.3516"/><text fill="#000000" font-family="sans-serif" font-size="14" lengthAdjust="spacing" textLength="298" x="537.5" y="722.5801">findMatchingBrace(s: String, openIndex: int): int</text><rect fill="#F24D5C" height="6" style="stroke:#C82930;stroke-width:1.0;" width="6" x="525.5" y="732.9609"/><text fill="#000000" font-family="sans-serif" font-size="14" lengthAdjust="spacing" textLength="280" x="537.5" y="740.1895">parseObject(obj: String): Map&lt;String,String&gt;</text><rect fill="#F24D5C" height="6" style="stroke:#C82930;stroke-width:1.0;" width="6" x="525.5" y="750.5703"/><text fill="#000000" font-family="sans-serif" font-size="14" lengthAdjust="spacing" textLength="198" x="537.5" y="757.7988">unescapeJson(s: String): String</text><rect fill="#F24D5C" height="6" style="stroke:#C82930;stroke-width:1.0;" width="6" x="525.5" y="768.1797"/><text fill="#000000" font-family="sans-serif" font-size="14" lengthAdjust="spacing" textLength="182" x="537.5" y="775.4082">escapeJson(s: String): String</text><rect fill="#F24D5C" height="6" style="stroke:#C82930;stroke-width:1.0;" width="6" x="525.5" y="785.7891"/><text fill="#000000" font-family="sans-serif" font-size="14" lengthAdjust="spacing" textLength="86" x="537.5" y="793.0176">persist(): void</text><ellipse cx="528.5" cy="806.3984" fill="#84BE84" rx="3" ry="3" style="stroke:#038048;stroke-width:1.0;"/><text fill="#000000" font-family="sans-serif" font-size="14" lengthAdjust="spacing" textLength="149" x="537.5" y="810.627">add(fusca: Fusca): void</text><ellipse cx="528.5" cy="824.0078" fill="#84BE84" rx="3" ry="3" style="stroke:#038048;stroke-width:1.0;"/><text fill="#000000" font-family="sans-serif" font-size="14" lengthAdjust="spacing" textLength="199" x="537.5" y="828.2363">removeById(id: String): boolean</text><ellipse cx="528.5" cy="841.6172" fill="#84BE84" rx="3" ry="3" style="stroke:#038048;stroke-width:1.0;"/><text fill="#000000" font-family="sans-serif" font-size="14" lengthAdjust="spacing" textLength="194" x="537.5" y="845.8457">update(fusca: Fusca): boolean</text><ellipse cx="528.5" cy="859.2266" fill="#84BE84" rx="3" ry="3" style="stroke:#038048;stroke-width:1.0;"/><text fill="#000000" font-family="sans-serif" font-size="14" lengthAdjust="spacing" textLength="163" x="537.5" y="863.4551">findById(id: String): Fusca</text><ellipse cx="528.5" cy="876.8359" fill="#84BE84" rx="3" ry="3" style="stroke:#038048;stroke-width:1.0;"/><text fill="#000000" font-family="sans-serif" font-size="14" lengthAdjust="spacing" textLength="244" x="537.5" y="881.0645">findByColor(color: String): List&lt;Fusca&gt;</text></g></a><!--class FuscaRepository--><a href="java:FuscaRepository" target="_top" title="java:FuscaRepository" xlink:actuate="onRequest" xlink:href="java:FuscaRepository" xlink:show="new" xlink:title="java:FuscaRepository" xlink:type="simple"><g id="elem_FuscaRepository"><rect codeLine="87" fill="#F1F1F1" height="136.0469" id="FuscaRepository" rx="2.5" ry="2.5" style="stroke:#181818;stroke-width:0.5;" width="256" x="449.5" y="309"/><ellipse cx="519.75" cy="325" fill="#ADD1B2" rx="11" ry="11" style="stroke:#181818;stroke-width:1.0;"/><path d="M522.5156,320.875 Q522.6719,320.6563 522.8594,320.5469 Q523.0469,320.4375 523.2656,320.4375 Q523.6406,320.4375 523.875,320.7031 Q524.1094,320.9531 524.1094,321.5625 L524.1094,323.0156 Q524.1094,323.625 523.875,323.8906 Q523.6406,324.1563 523.2656,324.1563 Q522.9219,324.1563 522.7188,323.9531 Q522.5156,323.7656 522.4063,323.25 Q522.3594,322.8906 522.1719,322.7031 Q521.8438,322.3281 521.2344,322.1094 Q520.625,321.8906 520,321.8906 Q519.2344,321.8906 518.5938,322.2188 Q517.9688,322.5469 517.4688,323.2969 Q516.9844,324.0469 516.9844,325.0781 L516.9844,326.1719 Q516.9844,327.4063 517.875,328.2344 Q518.7656,329.0469 520.3594,329.0469 Q521.2969,329.0469 521.9531,328.7969 Q522.3438,328.6406 522.7656,328.2031 Q523.0313,327.9375 523.1719,327.8594 Q523.3281,327.7813 523.5313,327.7813 Q523.8594,327.7813 524.1094,328.0469 Q524.375,328.2969 524.375,328.6406 Q524.375,328.9844 524.0313,329.3906 Q523.5313,329.9688 522.7344,330.2969 Q521.6563,330.75 520.3594,330.75 Q518.8438,330.75 517.6406,330.125 Q516.6563,329.625 515.9688,328.5625 Q515.2813,327.4844 515.2813,326.2031 L515.2813,325.0469 Q515.2813,323.7188 515.8906,322.5781 Q516.5156,321.4219 517.6094,320.8125 Q518.7031,320.1875 519.9375,320.1875 Q520.6719,320.1875 521.3125,320.3594 Q521.9688,320.5156 522.5156,320.875 Z " fill="#000000"/><text fill="#000000" font-family="sans-serif" font-size="14" lengthAdjust="spacing" textLength="107" x="540.25" y="330.7285">FuscaRepository</text><line style="stroke:#181818;stroke-width:0.5;" x1="450.5" x2="704.5" y1="341" y2="341"/><line style="stroke:#181818;stroke-width:0.5;" x1="450.5" x2="704.5" y1="349" y2="349"/><text fill="#000000" font-family="sans-serif" font-size="14" lengthAdjust="spacing" textLength="149" x="455.5" y="367.5332">add(fusca: Fusca): void</text><text fill="#000000" font-family="sans-serif" font-size="14" lengthAdjust="spacing" textLength="199" x="455.5" y="385.1426">removeById(id: String): boolean</text><text fill="#000000" font-family="sans-serif" font-size="14" lengthAdjust="spacing" textLength="194" x="455.5" y="402.752">update(fusca: Fusca): boolean</text><text fill="#000000" font-family="sans-serif" font-size="14" lengthAdjust="spacing" textLength="163" x="455.5" y="420.3613">findById(id: String): Fusca</text><text fill="#000000" font-family="sans-serif" font-size="14" lengthAdjust="spacing" textLength="244" x="455.5" y="437.9707">findByColor(color: String): List&lt;Fusca&gt;</text></g></a><!--class InMemoryFuscaRepository--><a href="java:InMemoryFuscaRepository" target="_top" title="java:InMemoryFuscaRepository" xlink:actuate="onRequest" xlink:href="java:InMemoryFuscaRepository" xlink:show="new" xlink:title="java:InMemoryFuscaRepository" xlink:type="simple"><g id="elem_InMemoryFuscaRepository"><rect codeLine="45" fill="#F1F1F1" height="136.0469" id="InMemoryFuscaRepository" rx="2.5" ry="2.5" style="stroke:#181818;stroke-width:0.5;" width="270" x="876.5" y="664"/><ellipse cx="923.25" cy="680" fill="#ADD1B2" rx="11" ry="11" style="stroke:#181818;stroke-width:1.0;"/><path d="M926.0156,675.875 Q926.1719,675.6563 926.3594,675.5469 Q926.5469,675.4375 926.7656,675.4375 Q927.1406,675.4375 927.375,675.7031 Q927.6094,675.9531 927.6094,676.5625 L927.6094,678.0156 Q927.6094,678.625 927.375,678.8906 Q927.1406,679.1563 926.7656,679.1563 Q926.4219,679.1563 926.2188,678.9531 Q926.0156,678.7656 925.9063,678.25 Q925.8594,677.8906 925.6719,677.7031 Q925.3438,677.3281 924.7344,677.1094 Q924.125,676.8906 923.5,676.8906 Q922.7344,676.8906 922.0938,677.2188 Q921.4688,677.5469 920.9688,678.2969 Q920.4844,679.0469 920.4844,680.0781 L920.4844,681.1719 Q920.4844,682.4063 921.375,683.2344 Q922.2656,684.0469 923.8594,684.0469 Q924.7969,684.0469 925.4531,683.7969 Q925.8438,683.6406 926.2656,683.2031 Q926.5313,682.9375 926.6719,682.8594 Q926.8281,682.7813 927.0313,682.7813 Q927.3594,682.7813 927.6094,683.0469 Q927.875,683.2969 927.875,683.6406 Q927.875,683.9844 927.5313,684.3906 Q927.0313,684.9688 926.2344,685.2969 Q925.1563,685.75 923.8594,685.75 Q922.3438,685.75 921.1406,685.125 Q920.1563,684.625 919.4688,683.5625 Q918.7813,682.4844 918.7813,681.2031 L918.7813,680.0469 Q918.7813,678.7188 919.3906,677.5781 Q920.0156,676.4219 921.1094,675.8125 Q922.2031,675.1875 923.4375,675.1875 Q924.1719,675.1875 924.8125,675.3594 Q925.4688,675.5156 926.0156,675.875 Z " fill="#000000"/><text fill="#000000" font-family="sans-serif" font-size="14" lengthAdjust="spacing" textLength="168" x="943.75" y="685.7285">InMemoryFuscaRepository</text><line style="stroke:#181818;stroke-width:0.5;" x1="877.5" x2="1145.5" y1="696" y2="696"/><line style="stroke:#181818;stroke-width:0.5;" x1="877.5" x2="1145.5" y1="704" y2="704"/><ellipse cx="887.5" cy="718.3047" fill="#84BE84" rx="3" ry="3" style="stroke:#038048;stroke-width:1.0;"/><text fill="#000000" font-family="sans-serif" font-size="14" lengthAdjust="spacing" textLength="149" x="896.5" y="722.5332">add(fusca: Fusca): void</text><ellipse cx="887.5" cy="735.9141" fill="#84BE84" rx="3" ry="3" style="stroke:#038048;stroke-width:1.0;"/><text fill="#000000" font-family="sans-serif" font-size="14" lengthAdjust="spacing" textLength="199" x="896.5" y="740.1426">removeById(id: String): boolean</text><ellipse cx="887.5" cy="753.5234" fill="#84BE84" rx="3" ry="3" style="stroke:#038048;stroke-width:1.0;"/><text fill="#000000" font-family="sans-serif" font-size="14" lengthAdjust="spacing" textLength="194" x="896.5" y="757.752">update(fusca: Fusca): boolean</text><ellipse cx="887.5" cy="771.1328" fill="#84BE84" rx="3" ry="3" style="stroke:#038048;stroke-width:1.0;"/><text fill="#000000" font-family="sans-serif" font-size="14" lengthAdjust="spacing" textLength="163" x="896.5" y="775.3613">findById(id: String): Fusca</text><ellipse cx="887.5" cy="788.7422" fill="#84BE84" rx="3" ry="3" style="stroke:#038048;stroke-width:1.0;"/><text fill="#000000" font-family="sans-serif" font-size="14" lengthAdjust="spacing" textLength="244" x="896.5" y="792.9707">findByColor(color: String): List&lt;Fusca&gt;</text></g></a><!--class Player--><a href="java:Player" target="_top" title="java:Player" xlink:actuate="onRequest" xlink:href="java:Player" xlink:show="new" xlink:title="java:Player" xlink:type="simple"><g id="elem_Player"><rect codeLine="61" fill="#F1F1F1" height="83.2188" id="Player" rx="2.5" ry="2.5" style="stroke:#181818;stroke-width:0.5;" width="287" x="9" y="992.5"/><ellipse cx="128.25" cy="1008.5" fill="#ADD1B2" rx="11" ry="11" style="stroke:#181818;stroke-width:1.0;"/><path d="M131.0156,1004.375 Q131.1719,1004.1563 131.3594,1004.0469 Q131.5469,1003.9375 131.7656,1003.9375 Q132.1406,1003.9375 132.375,1004.2031 Q132.6094,1004.4531 132.6094,1005.0625 L132.6094,1006.5156 Q132.6094,1007.125 132.375,1007.3906 Q132.1406,1007.6563 131.7656,1007.6563 Q131.4219,1007.6563 131.2188,1007.4531 Q131.0156,1007.2656 130.9063,1006.75 Q130.8594,1006.3906 130.6719,1006.2031 Q130.3438,1005.8281 129.7344,1005.6094 Q129.125,1005.3906 128.5,1005.3906 Q127.7344,1005.3906 127.0938,1005.7188 Q126.4688,1006.0469 125.9688,1006.7969 Q125.4844,1007.5469 125.4844,1008.5781 L125.4844,1009.6719 Q125.4844,1010.9063 126.375,1011.7344 Q127.2656,1012.5469 128.8594,1012.5469 Q129.7969,1012.5469 130.4531,1012.2969 Q130.8438,1012.1406 131.2656,1011.7031 Q131.5313,1011.4375 131.6719,1011.3594 Q131.8281,1011.2813 132.0313,1011.2813 Q132.3594,1011.2813 132.6094,1011.5469 Q132.875,1011.7969 132.875,1012.1406 Q132.875,1012.4844 132.5313,1012.8906 Q132.0313,1013.4688 131.2344,1013.7969 Q130.1563,1014.25 128.8594,1014.25 Q127.3438,1014.25 126.1406,1013.625 Q125.1563,1013.125 124.4688,1012.0625 Q123.7813,1010.9844 123.7813,1009.7031 L123.7813,1008.5469 Q123.7813,1007.2188 124.3906,1006.0781 Q125.0156,1004.9219 126.1094,1004.3125 Q127.2031,1003.6875 128.4375,1003.6875 Q129.1719,1003.6875 129.8125,1003.8594 Q130.4688,1004.0156 131.0156,1004.375 Z " fill="#000000"/><text fill="#000000" font-family="sans-serif" font-size="14" lengthAdjust="spacing" textLength="40" x="148.75" y="1014.2285">Player</text><line style="stroke:#181818;stroke-width:0.5;" x1="10" x2="295" y1="1024.5" y2="1024.5"/><line style="stroke:#181818;stroke-width:0.5;" x1="10" x2="295" y1="1032.5" y2="1032.5"/><ellipse cx="20" cy="1046.8047" fill="#84BE84" rx="3" ry="3" style="stroke:#038048;stroke-width:1.0;"/><text fill="#000000" font-family="sans-serif" font-size="14" lengthAdjust="spacing" textLength="130" x="29" y="1051.0332">Player(name: String)</text><ellipse cx="20" cy="1064.4141" fill="#84BE84" rx="3" ry="3" style="stroke:#038048;stroke-width:1.0;"/><text fill="#000000" font-family="sans-serif" font-size="14" lengthAdjust="spacing" textLength="261" x="29" y="1068.6426">attack(target: Person, fusca: Fusca): void</text></g></a><!--class FuscaService--><a href="java:FuscaService" target="_top" title="java:FuscaService" xlink:actuate="onRequest" xlink:href="java:FuscaService" xlink:show="new" xlink:title="java:FuscaService" xlink:type="simple"><g id="elem_FuscaService"><rect codeLine="78" fill="#F1F1F1" height="171.2656" id="FuscaService" rx="2.5" ry="2.5" style="stroke:#181818;stroke-width:0.5;" width="522" x="117.5" y="7"/><ellipse cx="331.25" cy="23" fill="#ADD1B2" rx="11" ry="11" style="stroke:#181818;stroke-width:1.0;"/><path d="M334.0156,18.875 Q334.1719,18.6563 334.3594,18.5469 Q334.5469,18.4375 334.7656,18.4375 Q335.1406,18.4375 335.375,18.7031 Q335.6094,18.9531 335.6094,19.5625 L335.6094,21.0156 Q335.6094,21.625 335.375,21.8906 Q335.1406,22.1563 334.7656,22.1563 Q334.4219,22.1563 334.2188,21.9531 Q334.0156,21.7656 333.9063,21.25 Q333.8594,20.8906 333.6719,20.7031 Q333.3438,20.3281 332.7344,20.1094 Q332.125,19.8906 331.5,19.8906 Q330.7344,19.8906 330.0938,20.2188 Q329.4688,20.5469 328.9688,21.2969 Q328.4844,22.0469 328.4844,23.0781 L328.4844,24.1719 Q328.4844,25.4063 329.375,26.2344 Q330.2656,27.0469 331.8594,27.0469 Q332.7969,27.0469 333.4531,26.7969 Q333.8438,26.6406 334.2656,26.2031 Q334.5313,25.9375 334.6719,25.8594 Q334.8281,25.7813 335.0313,25.7813 Q335.3594,25.7813 335.6094,26.0469 Q335.875,26.2969 335.875,26.6406 Q335.875,26.9844 335.5313,27.3906 Q335.0313,27.9688 334.2344,28.2969 Q333.1563,28.75 331.8594,28.75 Q330.3438,28.75 329.1406,28.125 Q328.1563,27.625 327.4688,26.5625 Q326.7813,25.4844 326.7813,24.2031 L326.7813,23.0469 Q326.7813,21.7188 327.3906,20.5781 Q328.0156,19.4219 329.1094,18.8125 Q330.2031,18.1875 331.4375,18.1875 Q332.1719,18.1875 332.8125,18.3594 Q333.4688,18.5156 334.0156,18.875 Z " fill="#000000"/><text fill="#000000" font-family="sans-serif" font-size="14" lengthAdjust="spacing" textLength="86" x="351.75" y="28.7285">FuscaService</text><line style="stroke:#181818;stroke-width:0.5;" x1="118.5" x2="638.5" y1="39" y2="39"/><line style="stroke:#181818;stroke-width:0.5;" x1="118.5" x2="638.5" y1="47" y2="47"/><ellipse cx="128.5" cy="61.3047" fill="#84BE84" rx="3" ry="3" style="stroke:#038048;stroke-width:1.0;"/><text fill="#000000" font-family="sans-serif" font-size="14" lengthAdjust="spacing" textLength="274" x="137.5" y="65.5332">FuscaService(repository: FuscaRepository)</text><ellipse cx="128.5" cy="78.9141" fill="#84BE84" rx="3" ry="3" style="stroke:#038048;stroke-width:1.0;"/><text fill="#000000" font-family="sans-serif" font-size="14" lengthAdjust="spacing" textLength="339" x="137.5" y="83.1426">createFusca(color: String, ownerName: String): Fusca</text><ellipse cx="128.5" cy="96.5234" fill="#84BE84" rx="3" ry="3" style="stroke:#038048;stroke-width:1.0;"/><text fill="#000000" font-family="sans-serif" font-size="14" lengthAdjust="spacing" textLength="211" x="137.5" y="100.752">removeFusca(id: String): boolean</text><ellipse cx="128.5" cy="114.1328" fill="#84BE84" rx="3" ry="3" style="stroke:#038048;stroke-width:1.0;"/><text fill="#000000" font-family="sans-serif" font-size="14" lengthAdjust="spacing" textLength="233" x="137.5" y="118.3613">updateFusca(fusca: Fusca): boolean</text><ellipse cx="128.5" cy="131.7422" fill="#84BE84" rx="3" ry="3" style="stroke:#038048;stroke-width:1.0;"/><text fill="#000000" font-family="sans-serif" font-size="14" lengthAdjust="spacing" textLength="163" x="137.5" y="135.9707">findById(id: String): Fusca</text><ellipse cx="128.5" cy="149.3516" fill="#84BE84" rx="3" ry="3" style="stroke:#038048;stroke-width:1.0;"/><text fill="#000000" font-family="sans-serif" font-size="14" lengthAdjust="spacing" textLength="244" x="137.5" y="153.5801">findByColor(color: String): List&lt;Fusca&gt;</text><ellipse cx="128.5" cy="166.9609" fill="#84BE84" rx="3" ry="3" style="stroke:#038048;stroke-width:1.0;"/><text fill="#000000" font-family="sans-serif" font-size="14" lengthAdjust="spacing" textLength="496" x="137.5" y="171.1895">seeFuscaAndPunch(fuscaId: String, attacker: Person, target: Person): boolean</text></g></a><!--class Car--><a href="java:Car" target="_top" title="java:Car" xlink:actuate="onRequest" xlink:href="java:Car" xlink:show="new" xlink:title="java:Car" xlink:type="simple"><g id="elem_Car"><rect codeLine="116" fill="#F1F1F1" height="136.0469" id="Car" rx="2.5" ry="2.5" style="stroke:#181818;stroke-width:0.5;" width="290" x="1181.5" y="664"/><ellipse cx="1310.75" cy="680" fill="#ADD1B2" rx="11" ry="11" style="stroke:#181818;stroke-width:1.0;"/><path d="M1313.5156,675.875 Q1313.6719,675.6563 1313.8594,675.5469 Q1314.0469,675.4375 1314.2656,675.4375 Q1314.6406,675.4375 1314.875,675.7031 Q1315.1094,675.9531 1315.1094,676.5625 L1315.1094,678.0156 Q1315.1094,678.625 1314.875,678.8906 Q1314.6406,679.1563 1314.2656,679.1563 Q1313.9219,679.1563 1313.7188,678.9531 Q1313.5156,678.7656 1313.4063,678.25 Q1313.3594,677.8906 1313.1719,677.7031 Q1312.8438,677.3281 1312.2344,677.1094 Q1311.625,676.8906 1311,676.8906 Q1310.2344,676.8906 1309.5938,677.2188 Q1308.9688,677.5469 1308.4688,678.2969 Q1307.9844,679.0469 1307.9844,680.0781 L1307.9844,681.1719 Q1307.9844,682.4063 1308.875,683.2344 Q1309.7656,684.0469 1311.3594,684.0469 Q1312.2969,684.0469 1312.9531,683.7969 Q1313.3438,683.6406 1313.7656,683.2031 Q1314.0313,682.9375 1314.1719,682.8594 Q1314.3281,682.7813 1314.5313,682.7813 Q1314.8594,682.7813 1315.1094,683.0469 Q1315.375,683.2969 1315.375,683.6406 Q1315.375,683.9844 1315.0313,684.3906 Q1314.5313,684.9688 1313.7344,685.2969 Q1312.6563,685.75 1311.3594,685.75 Q1309.8438,685.75 1308.6406,685.125 Q1307.6563,684.625 1306.9688,683.5625 Q1306.2813,682.4844 1306.2813,681.2031 L1306.2813,680.0469 Q1306.2813,678.7188 1306.8906,677.5781 Q1307.5156,676.4219 1308.6094,675.8125 Q1309.7031,675.1875 1310.9375,675.1875 Q1311.6719,675.1875 1312.3125,675.3594 Q1312.9688,675.5156 1313.5156,675.875 Z " fill="#000000"/><text fill="#000000" font-family="sans-serif" font-size="14" lengthAdjust="spacing" textLength="23" x="1331.25" y="685.7285">Car</text><line style="stroke:#181818;stroke-width:0.5;" x1="1182.5" x2="1470.5" y1="696" y2="696"/><rect fill="none" height="6" style="stroke:#C82930;stroke-width:1.0;" width="6" x="1189.5" y="707.3047"/><text fill="#000000" font-family="sans-serif" font-size="14" lengthAdjust="spacing" textLength="83" x="1201.5" y="714.5332">model: String</text><line style="stroke:#181818;stroke-width:0.5;" x1="1182.5" x2="1470.5" y1="721.6094" y2="721.6094"/><ellipse cx="1192.5" cy="735.9141" fill="#84BE84" rx="3" ry="3" style="stroke:#038048;stroke-width:1.0;"/><text fill="#000000" font-family="sans-serif" font-size="14" lengthAdjust="spacing" textLength="264" x="1201.5" y="740.1426">Car(id: String, color: String, model: String)</text><ellipse cx="1192.5" cy="753.5234" fill="#84BE84" rx="3" ry="3" style="stroke:#038048;stroke-width:1.0;"/><text fill="#000000" font-family="sans-serif" font-size="14" lengthAdjust="spacing" textLength="113" x="1201.5" y="757.752">getModel(): String</text><ellipse cx="1192.5" cy="771.1328" fill="#84BE84" rx="3" ry="3" style="stroke:#038048;stroke-width:1.0;"/><text fill="#000000" font-family="sans-serif" font-size="14" lengthAdjust="spacing" textLength="184" x="1201.5" y="775.3613">setModel(model: String): void</text><ellipse cx="1192.5" cy="788.7422" fill="#84BE84" rx="3" ry="3" style="stroke:#038048;stroke-width:1.0;"/><text fill="#000000" font-family="sans-serif" font-size="14" lengthAdjust="spacing" textLength="104" x="1201.5" y="792.9707">toString(): String</text></g></a><!--class Vehicle--><a href="java:Vehicle" target="_top" title="java:Vehicle" xlink:actuate="onRequest" xlink:href="java:Vehicle" xlink:show="new" xlink:title="java:Vehicle" xlink:type="simple"><g id="elem_Vehicle"><rect codeLine="123" fill="#F1F1F1" height="241.7031" id="Vehicle" rx="2.5" ry="2.5" style="stroke:#181818;stroke-width:0.5;" width="222" x="1215.5" y="256"/><ellipse cx="1299.25" cy="272" fill="#ADD1B2" rx="11" ry="11" style="stroke:#181818;stroke-width:1.0;"/><path d="M1302.0156,267.875 Q1302.1719,267.6563 1302.3594,267.5469 Q1302.5469,267.4375 1302.7656,267.4375 Q1303.1406,267.4375 1303.375,267.7031 Q1303.6094,267.9531 1303.6094,268.5625 L1303.6094,270.0156 Q1303.6094,270.625 1303.375,270.8906 Q1303.1406,271.1563 1302.7656,271.1563 Q1302.4219,271.1563 1302.2188,270.9531 Q1302.0156,270.7656 1301.9063,270.25 Q1301.8594,269.8906 1301.6719,269.7031 Q1301.3438,269.3281 1300.7344,269.1094 Q1300.125,268.8906 1299.5,268.8906 Q1298.7344,268.8906 1298.0938,269.2188 Q1297.4688,269.5469 1296.9688,270.2969 Q1296.4844,271.0469 1296.4844,272.0781 L1296.4844,273.1719 Q1296.4844,274.4063 1297.375,275.2344 Q1298.2656,276.0469 1299.8594,276.0469 Q1300.7969,276.0469 1301.4531,275.7969 Q1301.8438,275.6406 1302.2656,275.2031 Q1302.5313,274.9375 1302.6719,274.8594 Q1302.8281,274.7813 1303.0313,274.7813 Q1303.3594,274.7813 1303.6094,275.0469 Q1303.875,275.2969 1303.875,275.6406 Q1303.875,275.9844 1303.5313,276.3906 Q1303.0313,276.9688 1302.2344,277.2969 Q1301.1563,277.75 1299.8594,277.75 Q1298.3438,277.75 1297.1406,277.125 Q1296.1563,276.625 1295.4688,275.5625 Q1294.7813,274.4844 1294.7813,273.2031 L1294.7813,272.0469 Q1294.7813,270.7188 1295.3906,269.5781 Q1296.0156,268.4219 1297.1094,267.8125 Q1298.2031,267.1875 1299.4375,267.1875 Q1300.1719,267.1875 1300.8125,267.3594 Q1301.4688,267.5156 1302.0156,267.875 Z " fill="#000000"/><text fill="#000000" font-family="sans-serif" font-size="14" lengthAdjust="spacing" textLength="46" x="1319.75" y="277.7285">Vehicle</text><line style="stroke:#181818;stroke-width:0.5;" x1="1216.5" x2="1436.5" y1="288" y2="288"/><rect fill="none" height="6" style="stroke:#C82930;stroke-width:1.0;" width="6" x="1223.5" y="299.3047"/><text fill="#000000" font-family="sans-serif" font-size="14" lengthAdjust="spacing" textLength="56" x="1235.5" y="306.5332">id: String</text><rect fill="none" height="6" style="stroke:#C82930;stroke-width:1.0;" width="6" x="1223.5" y="316.9141"/><text fill="#000000" font-family="sans-serif" font-size="14" lengthAdjust="spacing" textLength="76" x="1235.5" y="324.1426">color: String</text><line style="stroke:#181818;stroke-width:0.5;" x1="1216.5" x2="1436.5" y1="331.2188" y2="331.2188"/><ellipse cx="1226.5" cy="345.5234" fill="#84BE84" rx="3" ry="3" style="stroke:#038048;stroke-width:1.0;"/><text fill="#000000" font-family="sans-serif" font-size="14" lengthAdjust="spacing" textLength="196" x="1235.5" y="349.752">Vehicle(id: String, color: String)</text><ellipse cx="1226.5" cy="363.1328" fill="#84BE84" rx="3" ry="3" style="stroke:#038048;stroke-width:1.0;"/><text fill="#000000" font-family="sans-serif" font-size="14" lengthAdjust="spacing" textLength="86" x="1235.5" y="367.3613">getId(): String</text><ellipse cx="1226.5" cy="380.7422" fill="#84BE84" rx="3" ry="3" style="stroke:#038048;stroke-width:1.0;"/><text fill="#000000" font-family="sans-serif" font-size="14" lengthAdjust="spacing" textLength="130" x="1235.5" y="384.9707">setId(id: String): void</text><ellipse cx="1226.5" cy="398.3516" fill="#84BE84" rx="3" ry="3" style="stroke:#038048;stroke-width:1.0;"/><text fill="#000000" font-family="sans-serif" font-size="14" lengthAdjust="spacing" textLength="109" x="1235.5" y="402.5801">getColor(): String</text><ellipse cx="1226.5" cy="415.9609" fill="#84BE84" rx="3" ry="3" style="stroke:#038048;stroke-width:1.0;"/><text fill="#000000" font-family="sans-serif" font-size="14" lengthAdjust="spacing" textLength="173" x="1235.5" y="420.1895">setColor(color: String): void</text><ellipse cx="1226.5" cy="433.5703" fill="#84BE84" rx="3" ry="3" style="stroke:#038048;stroke-width:1.0;"/><text fill="#000000" font-family="sans-serif" font-size="14" lengthAdjust="spacing" textLength="107" x="1235.5" y="437.7988">isBlue(): boolean</text><ellipse cx="1226.5" cy="451.1797" fill="#84BE84" rx="3" ry="3" style="stroke:#038048;stroke-width:1.0;"/><text fill="#000000" font-family="sans-serif" font-size="14" lengthAdjust="spacing" textLength="104" x="1235.5" y="455.4082">toString(): String</text><ellipse cx="1226.5" cy="468.7891" fill="#84BE84" rx="3" ry="3" style="stroke:#038048;stroke-width:1.0;"/><text fill="#000000" font-family="sans-serif" font-size="14" lengthAdjust="spacing" textLength="168" x="1235.5" y="473.0176">equals(o: Object): boolean</text><ellipse cx="1226.5" cy="486.3984" fill="#84BE84" rx="3" ry="3" style="stroke:#038048;stroke-width:1.0;"/><text fill="#000000" font-family="sans-serif" font-size="14" lengthAdjust="spacing" textLength="98" x="1235.5" y="490.627">hashCode(): int</text></g></a><!--link Person to Fusca--><g id="link_Person_Fusca"><path codeLine="18" d="M197.99,870.73 C211.53,895.39 228.75,918.71 250.5,936 C290.7,967.96 401.1495,992.1363 502.5695,1008.8163 " fill="none" id="Person-to-Fusca" style="stroke:#181818;stroke-width:1.0;"/><polygon fill="#181818" points="508.49,1009.79,500.2584,1004.3825,503.5563,1008.9786,498.9602,1012.2764,508.49,1009.79" style="stroke:#181818;stroke-width:1.0;"/><text fill="#000000" font-family="sans-serif" font-size="13" lengthAdjust="spacing" textLength="71" x="251.5" y="932.4951">seenFuscas</text><text fill="#000000" font-family="sans-serif" font-size="13" lengthAdjust="spacing" textLength="5" x="495.6278" y="1005.8325">*</text></g><!--link FileFuscaRepository to Fusca--><g id="link_FileFuscaRepository_Fusca"><path codeLine="41" d="M679.5,888.27 C679.5,915.58 679.5,936.65 679.5,959.87 " fill="none" id="FileFuscaRepository-to-Fusca" style="stroke:#181818;stroke-width:1.0;"/><polygon fill="#181818" points="679.5,965.87,683.5,956.87,679.5,960.87,675.5,956.87,679.5,965.87" style="stroke:#181818;stroke-width:1.0;"/><text fill="#000000" font-family="sans-serif" font-size="13" lengthAdjust="spacing" textLength="43" x="680.5" y="932.4951">findAll()</text><text fill="#000000" font-family="sans-serif" font-size="13" lengthAdjust="spacing" textLength="5" x="674.2266" y="955.0551">*</text></g><!--reverse link FuscaRepository to FileFuscaRepository--><g id="link_FuscaRepository_FileFuscaRepository"><path codeLine="44" d="M601.9267,462.5226 C612.6467,499.6226 621.44,530.07 634.67,575.85 " fill="none" id="FuscaRepository-backto-FileFuscaRepository" style="stroke:#181818;stroke-width:1.0;stroke-dasharray:7.0,7.0;"/><polygon fill="none" points="596.93,445.23,596.1625,464.1881,607.6909,460.857,596.93,445.23" style="stroke:#181818;stroke-width:1.0;"/></g><!--link InMemoryFuscaRepository to Fusca--><g id="link_InMemoryFuscaRepository_Fusca"><path codeLine="54" d="M948.8,800.33 C922,828.2 889.93,860.4 859.5,888 C830.37,914.42 801.8636,938.1224 771.9636,961.9324 " fill="none" id="InMemoryFuscaRepository-to-Fusca" style="stroke:#181818;stroke-width:1.0;"/><polygon fill="#181818" points="767.27,965.67,776.8022,963.1926,771.1814,962.5553,771.8187,956.9345,767.27,965.67" style="stroke:#181818;stroke-width:1.0;"/><text fill="#000000" font-family="sans-serif" font-size="13" lengthAdjust="spacing" textLength="43" x="821.5" y="932.4951">storage</text><text fill="#000000" font-family="sans-serif" font-size="13" lengthAdjust="spacing" textLength="5" x="771.0635" y="955.3093">*</text></g><!--link InMemoryFuscaRepository to Fusca--><g id="link_InMemoryFuscaRepository_Fusca"><path codeLine="57" d="M977.45,800.32 C953.08,843.34 916.96,897.98 873.5,936 C861.17,946.78 852.5052,953.5096 838.1852,962.5396 " fill="none" id="InMemoryFuscaRepository-to-Fusca-1" style="stroke:#181818;stroke-width:1.0;"/><polygon fill="#181818" points="833.11,965.74,842.8564,964.3229,837.3393,963.073,838.5892,957.556,833.11,965.74" style="stroke:#181818;stroke-width:1.0;"/><text fill="#000000" font-family="sans-serif" font-size="13" lengthAdjust="spacing" textLength="43" x="888.5" y="932.4951">findAll()</text><text fill="#000000" font-family="sans-serif" font-size="13" lengthAdjust="spacing" textLength="5" x="844.6377" y="954.9108">*</text></g><!--reverse link FuscaRepository to InMemoryFuscaRepository--><g id="link_FuscaRepository_InMemoryFuscaRepository"><path codeLine="60" d="M697.6334,455.1449 C752.1634,491.6049 803.85,528.78 859.5,576 C891.25,602.95 923.92,635.51 950.78,663.82 " fill="none" id="FuscaRepository-backto-InMemoryFuscaRepository" style="stroke:#181818;stroke-width:1.0;stroke-dasharray:7.0,7.0;"/><polygon fill="none" points="682.67,445.14,694.2984,460.1327,700.9683,450.1571,682.67,445.14" style="stroke:#181818;stroke-width:1.0;"/></g><!--reverse link Person to Player--><g id="link_Person_Player"><path codeLine="67" d="M152.5,888.71 C152.5,933.07 152.5,960.87 152.5,992.46 " fill="none" id="Person-backto-Player" style="stroke:#181818;stroke-width:1.0;"/><polygon fill="none" points="152.5,870.71,146.5,888.71,158.5,888.71,152.5,870.71" style="stroke:#181818;stroke-width:1.0;"/></g><!--link FuscaRepository to Fusca--><g id="link_FuscaRepository_Fusca"><path codeLine="77" d="M522.49,445.38 C496.38,481.72 467.99,528.72 454.5,576 C416.45,709.35 388.12,766.25 454.5,888 C471.74,919.62 494.2174,941.9884 524.0774,962.5384 " fill="none" id="FuscaRepository-to-Fusca" style="stroke:#181818;stroke-width:1.0;"/><polygon fill="#181818" points="529.02,965.94,523.8738,957.5426,524.9012,963.1054,519.3384,964.1327,529.02,965.94" style="stroke:#181818;stroke-width:1.0;"/><text fill="#000000" font-family="sans-serif" font-size="13" lengthAdjust="spacing" textLength="43" x="455.5" y="737.4951">findAll()</text><text fill="#000000" font-family="sans-serif" font-size="13" lengthAdjust="spacing" textLength="5" x="507.2878" y="955.1327">*</text></g><!--link FuscaService to FuscaRepository--><g id="link_FuscaService_FuscaRepository"><path codeLine="89" d="M438.21,178.26 C467.63,220.03 499.1541,264.7852 526.7041,303.8852 " fill="none" id="FuscaService-to-FuscaRepository" style="stroke:#181818;stroke-width:1.0;"/><polygon fill="#181818" points="530.16,308.79,528.246,299.1289,527.2801,304.7027,521.7063,303.7368,530.16,308.79" style="stroke:#181818;stroke-width:1.0;"/><text fill="#000000" font-family="sans-serif" font-size="13" lengthAdjust="spacing" textLength="57" x="467.5" y="222.4951">repository</text><text fill="#000000" font-family="sans-serif" font-size="13" lengthAdjust="spacing" textLength="7" x="517.5994" y="297.9663">1</text></g><!--link FuscaService to Fusca--><g id="link_FuscaService_Fusca"><path codeLine="92" d="M359.41,178.17 C329.77,330.06 287.74,654.69 407.5,888 C428.76,929.42 461.6647,956.6466 502.8747,978.2266 " fill="none" id="FuscaService-to-Fusca" style="stroke:#181818;stroke-width:1.0;"/><polygon fill="#181818" points="508.19,981.01,502.0726,973.2913,503.7606,978.6905,498.3614,980.3784,508.19,981.01" style="stroke:#181818;stroke-width:1.0;"/><text fill="#000000" font-family="sans-serif" font-size="13" lengthAdjust="spacing" textLength="40" x="329.5" y="542.4951">listAll()</text><text fill="#000000" font-family="sans-serif" font-size="13" lengthAdjust="spacing" textLength="5" x="495.3142" y="975.7484">*</text></g><!--reverse link Car to Fusca--><g id="link_Car_Fusca"><path codeLine="102" d="M1257.5483,813.3034 C1228.7383,843.8434 1203.86,865.1 1164.5,888 C1067.84,944.24 947.44,980.39 850.78,1002.54 " fill="none" id="Car-backto-Fusca" style="stroke:#181818;stroke-width:1.0;"/><polygon fill="none" points="1269.9,800.21,1253.1839,809.1861,1261.9128,817.4206,1269.9,800.21" style="stroke:#181818;stroke-width:1.0;"/></g><!--reverse link Vehicle to Car--><g id="link_Vehicle_Car"><path codeLine="125" d="M1326.5,516 C1326.5,571.37 1326.5,617.02 1326.5,663.79 " fill="none" id="Vehicle-backto-Car" style="stroke:#181818;stroke-width:1.0;"/><polygon fill="none" points="1326.5,498,1320.5,516,1332.5,516,1326.5,498" style="stroke:#181818;stroke-width:1.0;"/></g><!--SRC=[tLTRJzim57vkVuN5NipQ8Eqrgf2W0waJXGhGNX2QtCIbOQcTsMwtYlM_x_YInBcrCB6NlPISYy_j-tmXIecKQ4Q5v0mzF3oJ3GcjzFY8Nlgz3uoiQ8Zkb4ZO4uWouWBaXAb-Rs0TiUzo3Eedggv1XO_BTLftfvTgfLrCujXgCWuAQTHWtF0aTbPAsULQHWGlz6-8Z52wf8bKXO_4fI5AAH6j5a5NV4CF1Luah4n-lft4E8cB_fotBb4f4dt7YWXeBdGp7ABsc8hRzTvGTlt83DzuvhCtWXdzhkzG2O9JTFJnoFc5I1QTkG1JaXJOwM-BtE15AgAIQ8TMeCDGfSnJFppcXHKr92arCMzfncMYkDWM5JLDDa6m00lqJTGI10a6yWJocBDeBGHbQagoaKquD05EmQqewd9oSVNvs-pi_lxYzjf4KLGmABib7zQPT1wFPK7AINmf-4hxbn076hmfKT4ItCu5YIWksXuYdb4sOJ7zbRFDK378Y93qPlvC8uNv_Dd3scl1_j4zh1c5yZBwHPDVUjuvsuD3zWoG1VRY2jyxs6WvswJXd7FWkPxOEek9elNbfLsFf9l6rZhcAHSuqh-UpnKKENBO7QHh6uVgtDN9pj8K7_TXybGi01_KnRiMpa6IclFezyb96tjTiHCsXV69RKUE3hFRGFy19btzDyuKktlVAzo_WRaZkojwbf8j5SKTPYG7f1KQzzGR3l1yq9qNPN5QZtu7WQlbxvhlTTBk8EiEa6ulvzxl67WrDxn0TrHi4fYJ7y_f78Q-2eiYV5WVhGOs4XJcOA_uIYzm0_naL5pxH2XtdPslNRPtMxS-7jvxR_S6SD6RxpCMpzOiMjgCaxZinZAOYfAyLJ9xPLLmUzCspB4nG7uwQaG8aQZlnVtag0JqcA4VT0rcDAFqWWQ8EJ-yYG_HGUJji_GcrrVUgz8tj97cyBjkJ8hJ23xT0BJI716M3cGk5JnI5B9Blj9b0g_NV9aJNTTbRo1KceCwd6lt05otmCfQctMUkiR0rtAqvjvENBSeaUVfsWoot0qj4-eDw8yrIINc8RBFhigA9P7BCO-B_nNs3BGNhC0nzIA3PHyBAkvk9bEjg_TfbLNtrw2-1y9TFpSQ1a2bVm00]--></g></svg>